<svg fill="#fff" version="1.1" id="1436536414" xmlns="http://www.w3.org/2000/svg" xmlns:xlink="http://www.w3.org/1999/xlink" x="0px" y="0px" viewBox="0 0 103 100" style="enable-background:new 0 0 103 100;" xml:space="preserve" class="svg u_1436536414" data-icon-custom="true" data-icon-name="nutritionicon.svg"> <path d="M79.9,28.3c0.3,0.1,0.6,0.3,0.8,0.5c0.3,0.3,0.4,0.6,0.6,0.8c0.1,0.3,0.2,0.6,0.2,0.9v40.2c0,0.7-0.3,1.2-0.8,1.6
	c-0.4,0.5-0.9,0.7-1.5,0.7c-0.7,0-1.2-0.2-1.6-0.7c-0.5-0.4-0.7-0.9-0.7-1.6V56.5h-2.8c-0.6,0-1.2-0.1-1.8-0.4
	c-0.7-0.2-1.1-0.6-1.6-1c-0.5-0.5-0.8-1-1-1.6c-0.2-0.7-0.4-1.2-0.3-1.9V41.4c0-2.8,0.8-5.6,2.3-7.9c1.5-2.3,3.8-4.2,6.3-5.3
	c0.3-0.1,0.7-0.2,0.9-0.2C79.2,28.1,79.6,28.1,79.9,28.3z M76.9,34.3c-1,0.9-1.7,2.1-2.3,3.3c-0.5,1.2-0.8,2.5-0.8,3.8v10.2
	c-0.1,0.1,0,0.3,0.1,0.4c0,0,0,0,0.1,0h2.8V34.3z M36.3,46c-0.9,1-2.3,1.5-3.7,1.5h-0.8v23.3c0,0.7-0.3,1.2-0.8,1.6
	c-0.4,0.5-0.9,0.7-1.5,0.7c-0.7,0-1.2-0.2-1.6-0.7c-0.5-0.4-0.7-0.9-0.7-1.6V47.5h-0.8c-1.4,0-2.8-0.5-3.8-1.5
	c-1-0.9-1.5-2.3-1.5-3.8v-12c0-0.6,0.2-1.1,0.7-1.5c0.4-0.5,0.9-0.8,1.6-0.8c0.6,0,1.1,0.3,1.5,0.8c0.5,0.4,0.8,0.9,0.8,1.5v12
	c0,0.3,0,0.5,0.2,0.6c0.1,0.2,0.3,0.2,0.6,0.2h0.8V30.3c0-0.6,0.2-1.1,0.7-1.5c0.4-0.5,0.9-0.8,1.6-0.8c0.6,0,1.1,0.3,1.5,0.8
	c0.5,0.4,0.8,0.9,0.8,1.5V43h0.8c0.2,0,0.4,0,0.5-0.2c0.2-0.1,0.3-0.3,0.3-0.6v-12c0-0.6,0.2-1.1,0.7-1.5c0.4-0.5,0.9-0.8,1.6-0.8
	c0.6,0,1.1,0.3,1.5,0.8c0.5,0.4,0.8,0.9,0.8,1.5v12C37.8,43.7,37.3,45.1,36.3,46z M44.4,59c-2.3-2.3-3.5-5.3-3.5-8.5
	c0-2.3,0.7-4.7,2-6.7c1.3-2,3.2-3.5,5.4-4.4c2.2-0.8,4.6-1.1,6.8-0.7c2.3,0.5,4.5,1.6,6.2,3.3s2.8,3.8,3.3,6.1
	c0.5,2.3,0.2,4.8-0.7,6.9c-0.9,2.3-2.4,4.1-4.4,5.4c-2,1.3-4.3,2-6.7,2C49.7,62.5,46.6,61.3,44.4,59z M47.6,45.3
	c-1.4,1.4-2.2,3.3-2.2,5.3c0,1.5,0.4,3,1.2,4.2c0.8,1.2,2,2.2,3.4,2.7c1.4,0.6,2.9,0.8,4.3,0.5c1.5-0.3,2.8-1,3.8-2.1
	c1-1,1.8-2.3,2.1-3.8c0.3-1.4,0.1-3-0.5-4.3c-0.6-1.4-1.5-2.5-2.7-3.4c-1.2-0.8-2.7-1.3-4.1-1.3C50.8,43,49,43.8,47.6,45.3z
	 M61.1,36.3c-2.2-1.2-4.5-2-6.9-2.2c-2.4-0.2-5,0.2-7.2,1c-2.3,0.9-4.4,2.3-6,4.1v-5.9c3.9-2.8,8.8-4.1,13.7-3.8
	c4.8,0.4,9.4,2.5,12.8,5.9c-0.7,1.8-0.9,3.8-1,5.7C65,39.2,63.2,37.5,61.1,36.3z M68.6,57.3c0.9,0.9,2.1,1.6,3.3,2
	c-1.5,3.5-4,6.5-7.2,8.6c-3.1,2.2-6.8,3.5-10.7,3.7c-3.8,0.2-7.6-0.7-11-2.4s-6.3-4.5-8.2-7.8V50.2c0.5-0.2,1-0.4,1.5-0.7
	c0,0.4,0,0.7,0,0.9c0,3.8,1.3,7.6,3.8,10.5c2.4,3,5.8,5,9.6,5.7s7.7,0.1,11.1-1.7c3.4-1.9,6-4.8,7.4-8.3
	C68.4,56.9,68.5,57.1,68.6,57.3z"></path> 
 <g> <path d="M51.4,100.5l-44.5-25v-50l44.5-25l44.5,25v50L51.4,100.5z M12.9,72l38.5,21.6L89.9,72V29L51.4,7.4L12.9,29V72z"></path> 
</g> 
</svg>