<svg fill="#749325" version="1.1" id="1242522491" xmlns="http://www.w3.org/2000/svg" xmlns:xlink="http://www.w3.org/1999/xlink" x="0px" y="0px" viewBox="0 0 103 100" style="enable-background:new 0 0 103 100;" xml:space="preserve" class="svg u_1242522491" data-icon-custom="true" data-icon-name="capsules.svg"> <path d="M76.2,55.2L63.8,38.4c-3.5-4.7-10-5.6-14.6-2.2c-1.9,1.3-3.1,3.1-3.8,5.1l-0.1-0.8c0-5.7-4.7-10.5-10.5-10.5
	c-5.9,0-10.5,4.8-10.5,10.5v21c0,5.8,4.8,10.5,10.5,10.5c5.8,0,10.5-4.7,10.5-10.5l0.1-13.6c0.3,1.1,0.8,2.2,1.5,3.1l12.5,16.8
	c3.5,4.7,10,5.6,14.7,2.2S79.7,59.9,76.2,55.2z M40.9,51h-12V40.5c0-7.9,12-7.9,12,0V51z M56.7,56.7l-6.3-8.4
	c-4.7-6.4,4.9-13.5,9.7-7.1l6.3,8.3L56.7,56.7z"></path> 
 <g> <path d="M51.4,100L6.9,75V25L51.4,0l44.5,25v50L51.4,100z M12.9,71.5l38.5,21.6l38.5-21.6v-43L51.4,6.9L12.9,28.5V71.5z"></path> 
</g> 
</svg>