<svg fill="#fff" id="1436536414" data-name="Layer 1" xmlns="http://www.w3.org/2000/svg" viewBox="0 0 89.02 100" class="svg u_1436536414" data-icon-custom="true" data-icon-name="Frame 102.svg"> <path d="M78.39,47.5V40.75a5.36,5.36,0,0,0-5.25-5.25h-3c-.28,0-.56.09-.75.09v-.84a5.36,5.36,0,0,0-5.25-5.25h-3a5.31,5.31,0,0,0-5.25,5.25V47.5h-9V34.75a5.36,5.36,0,0,0-5.25-5.25h-3a5.31,5.31,0,0,0-5.25,5.25v.84c-.28,0-.56-.09-.75-.09h-3a5.31,5.31,0,0,0-5.25,5.25V47.5a3,3,0,0,0-3,3,3,3,0,0,0,2.91,3l.09,6.75a5.24,5.24,0,0,0,5.25,5.25h3.75v.75a5.24,5.24,0,0,0,5.25,5.25h3a5.29,5.29,0,0,0,5.25-5.25V53.5h9V66.25a5.24,5.24,0,0,0,5.25,5.25h3a5.29,5.29,0,0,0,5.25-5.25V65.5h3.75a5.29,5.29,0,0,0,5.25-5.25V53.5a3,3,0,0,0,3-3A3.08,3.08,0,0,0,78.39,47.5ZM32.64,61h-3a.69.69,0,0,1-.75-.75V40.75a.75.75,0,0,1,.75-.75h3a.81.81,0,0,1,.75.75v19.5A.74.74,0,0,1,32.64,61Zm9.75,5.25a.74.74,0,0,1-.75.75h-3a.69.69,0,0,1-.75-.75V34.75a.75.75,0,0,1,.75-.75h3a.81.81,0,0,1,.75.75Zm22.5,0a.74.74,0,0,1-.75.75h-3a.69.69,0,0,1-.75-.75V34.75a.75.75,0,0,1,.75-.75h3a.81.81,0,0,1,.75.75Zm9-6a.74.74,0,0,1-.75.75h-3a.69.69,0,0,1-.75-.75V40.75a.75.75,0,0,1,.75-.75h3a.81.81,0,0,1,.75.75Z" transform="translate(-6.89 -0.5)"></path> 
 <path d="M51.39,100.5l-44.5-25v-50L51.39.5l44.51,25v50ZM12.89,72l38.5,21.63L89.9,72V29L51.39,7.38,12.89,29Z" transform="translate(-6.89 -0.5)"></path> 
</svg>